<svg height="512pt" viewBox="-36 0 511 512" width="512pt" xmlns="http://www.w3.org/2000/svg"><path d="m82.671875 287.363281v-287.363281h-30v287.363281c-29.839844 6.835938-52.171875 33.582031-52.171875 65.464844s22.332031 58.625 52.171875 65.460937v93.710938h30v-93.710938c29.839844-6.832031 52.171875-33.578124 52.171875-65.460937s-22.332031-58.628906-52.171875-65.464844zm-15 102.636719c-20.496094 0-37.171875-16.675781-37.171875-37.171875 0-20.5 16.675781-37.171875 37.171875-37.171875s37.171875 16.671875 37.171875 37.171875c0 20.496094-16.675781 37.171875-37.171875 37.171875zm0 0"/><path d="m234.769531 82.070312v-82.070312h-30v82.070312c-29.839843 6.835938-52.175781 33.582032-52.175781 65.464844 0 31.878906 22.335938 58.628906 52.175781 65.460938v299.003906h30v-299c29.835938-6.835938 52.171875-33.582031 52.171875-65.464844 0-31.882812-22.335937-58.628906-52.171875-65.464844zm-15 102.636719c-20.5 0-37.175781-16.675781-37.175781-37.171875s16.675781-37.171875 37.175781-37.171875c20.496094 0 37.171875 16.675781 37.171875 37.171875s-16.675781 37.171875-37.171875 37.171875zm0 0"/><path d="m439.035156 292.832031c0-31.882812-22.332031-58.628906-52.171875-65.464843v-227.367188h-30v227.367188c-29.835937 6.835937-52.171875 33.582031-52.171875 65.460937 0 31.882813 22.335938 58.628906 52.171875 65.464844v153.707031h30v-153.707031c29.839844-6.835938 52.171875-33.582031 52.171875-65.460938zm-67.171875 37.171875c-20.496093 0-37.171875-16.675781-37.171875-37.171875 0-20.496093 16.675782-37.175781 37.171875-37.175781 20.496094 0 37.171875 16.679688 37.171875 37.175781 0 20.496094-16.671875 37.171875-37.171875 37.171875zm0 0"/></svg>